<svg xmlns="http://www.w3.org/2000/svg" width="199" height="177" viewBox="0 0 199 177"><text transform="translate(659.352 263.546)"><tspan x="0" y="0" fill="#FFF" font-family="'CCRSansBlackItalic'" font-size="46.522">barra</tspan><tspan x="129.19" y="0" fill="#D8A84E" font-family="'CCRSansBlackItalic'" font-size="46.522">js</tspan></text><text transform="translate(686.808 205.914)"><tspan x="0" y="0" fill="#FFF" font-family="'CCRSansBlackItalic'" font-size="132.589">/</tspan><tspan x="36.859" y="0" fill="#D8A84E" font-family="'CCRSansBlackItalic'" font-size="90.719">js</tspan></text><path fill="#FFF" d="M36.552 133.348c2.884 0 5.133.977 6.745 2.931 1.52 1.892 2.28 4.265 2.28 7.118 0 3.04-.543 5.738-1.629 8.095-1.209 2.698-3.023 4.684-5.443 5.955-1.612.868-3.505 1.303-5.675 1.303-4.157 0-6.979-1.706-8.468-5.118h-.092l-.325 1.209c-.59 2.233-1.971 3.35-4.141 3.35h-4.513c.465-1.271 1.007-3.303 1.628-6.094l5.723-25.587c.558-2.202 1.953-3.303 4.187-3.303h4.792l-3.024 13.631h.14c2.139-2.327 4.743-3.49 7.815-3.49zm-10.049 14.004c0 1.396.325 2.543.977 3.442.713.993 1.722 1.489 3.024 1.489 1.891 0 3.442-.806 4.651-2.419 1.117-1.458 1.675-3.164 1.675-5.118 0-3.318-1.333-4.978-4-4.978-1.769 0-3.288.837-4.56 2.512-1.178 1.552-1.767 3.241-1.767 5.072zm36.38-14.097c4.9 0 8.142 1.489 9.724 4.466.558 1.055.837 2.326.837 3.815 0 1.334-.388 3.66-1.163 6.979-.993 4.156-1.628 7.35-1.907 9.583H67.35c-.961 0-1.775-.326-2.442-.977s-1.016-1.458-1.046-2.419l-.094-.093v.093c-1.706 2.637-4.436 3.955-8.188 3.955-5.366 0-8.049-2.341-8.049-7.025 0-2.264.821-4.141 2.466-5.629 1.427-1.271 3.318-2.187 5.676-2.745 1.612-.372 3.35-.558 5.211-.558 1.24 0 2.744.093 4.513.279.062-.155.093-.325.093-.512v-.512c0-1.023-.528-1.83-1.582-2.419-.837-.465-1.814-.698-2.931-.698-1.21 0-2.296.109-3.257.326-.124.031-.356.046-.697.046-.9 0-1.66-.302-2.28-.907s-.93-1.356-.93-2.256c0-.062.015-.14.046-.232v-.233l.093-.884c2.82-.962 5.798-1.443 8.931-1.443zm-4.573 19.819c3.486 0 5.585-1.923 6.295-5.769a6.493 6.493 0 0 0-1.157-.093h-1.064c-1.574-.031-2.994.155-4.259.558-1.76.589-2.638 1.551-2.638 2.884 0 .714.308 1.303.926 1.768.524.435 1.155.652 1.897.652zm36.627-19.679c1.457 0 2.636.202 3.535.605l-1.953 7.397c-.838-.682-2.125-1.023-3.861-1.023-2.482 0-4.297 1.365-5.443 4.094-.279.683-.528 1.52-.744 2.512l-1.629 7.816a4.091 4.091 0 0 1-1.512 2.419 4.22 4.22 0 0 1-2.675.931h-4.932l3.814-17.865a78.91 78.91 0 0 0 .535-2.861 4.032 4.032 0 0 1 1.419-2.489 4.07 4.07 0 0 1 2.698-.977h4.095l-.931 4.931h.093c1.83-3.66 4.327-5.49 7.491-5.49zm20.655 0c1.457 0 2.636.202 3.535.605l-1.953 7.397c-.838-.682-2.125-1.023-3.861-1.023-2.482 0-4.297 1.365-5.443 4.094-.279.683-.528 1.52-.744 2.512l-1.629 7.816a4.091 4.091 0 0 1-1.512 2.419 4.22 4.22 0 0 1-2.675.931h-4.932l3.814-17.865a78.91 78.91 0 0 0 .535-2.861 4.032 4.032 0 0 1 1.419-2.489 4.07 4.07 0 0 1 2.698-.977h4.095l-.931 4.931h.093c1.831-3.66 4.328-5.49 7.491-5.49zm17.026-.14c4.9 0 8.142 1.489 9.724 4.466.558 1.055.837 2.326.837 3.815 0 1.334-.388 3.66-1.163 6.979-.993 4.156-1.628 7.35-1.907 9.583h-3.024c-.961 0-1.775-.326-2.442-.977s-1.016-1.458-1.046-2.419l-.094-.093v.093c-1.706 2.637-4.436 3.955-8.188 3.955-5.366 0-8.049-2.341-8.049-7.025 0-2.264.821-4.141 2.466-5.629 1.427-1.271 3.318-2.187 5.676-2.745 1.612-.372 3.35-.558 5.211-.558 1.24 0 2.744.093 4.513.279.062-.155.093-.325.093-.512v-.512c0-1.023-.528-1.83-1.582-2.419-.837-.465-1.814-.698-2.931-.698-1.21 0-2.296.109-3.257.326-.124.031-.356.046-.697.046-.9 0-1.66-.302-2.28-.907s-.93-1.356-.93-2.256c0-.062.015-.14.046-.232v-.233l.093-.884c2.821-.962 5.798-1.443 8.931-1.443zm-4.573 19.819c3.486 0 5.585-1.923 6.295-5.769a6.493 6.493 0 0 0-1.157-.093h-1.064c-1.574-.031-2.994.155-4.259.558-1.76.589-2.638 1.551-2.638 2.884 0 .714.308 1.303.926 1.768.524.435 1.156.652 1.897.652z"/><path fill="#D8A84E" d="M150.809 136.326c.154-.713.526-1.31 1.116-1.791a3.083 3.083 0 0 1 2-.721h5.909l-5.024 24.191c-.776 3.784-1.939 6.436-3.489 7.956-1.675 1.644-4.297 2.465-7.862 2.465-1.147 0-2.513-.217-4.095-.651l.559-2.093c.062-.279.109-.419.14-.419.155-.651.496-1.217 1.023-1.698.527-.481 1.116-.721 1.768-.721h.14c1.086 0 1.907-.574 2.466-1.721.217-.497.496-1.535.838-3.117l4.511-21.68zm11.165-12.655l-.744 3.629c-.156.714-.535 1.318-1.14 1.814-.605.497-1.28.744-2.024.744h-5.908l.791-3.675c.372-1.675 1.411-2.512 3.117-2.512h5.908zm21.075 13.632c-.59 1.458-1.599 2.187-3.024 2.187h-.279c-.155 0-.372-.047-.651-.14a16.112 16.112 0 0 0-3.722-.419c-2.574 0-3.861.698-3.861 2.094 0 .683.899 1.365 2.698 2.047 1.147.403 2.807 1.132 4.979 2.187 1.798 1.148 2.698 2.59 2.698 4.327 0 2.978-1.194 5.273-3.583 6.885-2.016 1.365-4.575 2.078-7.676 2.14-3.599.062-6.979-.357-10.142-1.256l.791-2.652c.495-1.457 1.504-2.187 3.023-2.187.341 0 .682.047 1.023.14.961.249 2.171.372 3.629.372 3.101 0 4.652-.713 4.652-2.14 0-.837-.854-1.582-2.559-2.233l-2.419-.837c-3.319-1.178-4.979-3.35-4.979-6.513 0-2.574 1.333-4.605 4.001-6.094 2.202-1.24 4.915-1.861 8.142-1.861 2.233 0 4.915.481 8.048 1.442l-.789 2.511z"/><path fill="#FFF" d="M62.046 96.004c-.53 1.856-1.592 3.381-3.183 4.574s-3.36 1.79-5.304 1.79H43.483l24.131-89.763c.972-4.243 3.756-6.364 8.354-6.364h10.076L62.046 96.004z"/><path fill="#D8A84E" d="M91.368 57.965c.302-1.391 1.028-2.554 2.178-3.493 1.147-.937 2.449-1.406 3.9-1.406h11.521L99.17 100.24c-1.513 7.378-3.78 12.549-6.804 15.513-3.266 3.205-8.377 4.808-15.331 4.808-2.237 0-4.899-.424-7.983-1.27l1.089-4.083c.121-.544.212-.816.271-.816.304-1.27.969-2.374 1.996-3.311 1.029-.938 2.177-1.406 3.447-1.406h.272c2.117 0 3.719-1.12 4.808-3.356.423-.968.967-2.994 1.633-6.078l8.8-42.276zm21.773-24.675l-1.451 7.076c-.304 1.392-1.043 2.571-2.223 3.538-1.18.968-2.495 1.452-3.946 1.452H93.999l1.542-7.167c.727-3.266 2.752-4.898 6.078-4.898h11.522zm41.095 26.58c-1.15 2.844-3.116 4.264-5.897 4.264h-.544c-.304 0-.726-.091-1.271-.272-2.299-.544-4.717-.816-7.257-.816-5.021 0-7.53 1.361-7.53 4.083 0 1.331 1.754 2.662 5.262 3.992 2.237.787 5.474 2.208 9.707 4.264 3.507 2.238 5.262 5.05 5.262 8.437 0 5.806-2.329 10.283-6.985 13.427-3.932 2.662-8.921 4.051-14.969 4.173-7.016.121-13.607-.696-19.776-2.449l1.542-5.171c.967-2.842 2.934-4.264 5.897-4.264a7.58 7.58 0 0 1 1.995.272c1.874.484 4.233.726 7.076.726 6.047 0 9.072-1.391 9.072-4.173 0-1.633-1.664-3.084-4.989-4.354l-4.718-1.633c-6.473-2.297-9.707-6.532-9.707-12.7 0-5.02 2.6-8.981 7.802-11.884 4.294-2.418 9.585-3.629 15.876-3.629 4.354 0 9.585.938 15.694 2.812l-1.542 4.895z"/></svg>